# xmcd CD database file
#
# Track frame offsets:
#	150
#	17699
#	32224
#	46219
#	61756
#	75269
#	95031
#	107699
#	121769
#	139609
#	155924
#	177689
#
# Disc length: 2549 seconds
#
# Revision: 0
# Processed by: cddbd v1.5.1PL2 Copyright (c) Steve Scherf et al.
# Submitted via: CDex 1.51
#
DISCID=9709f30c
DTITLE=Dick Morrissey - It's Morrissey,Man!
DYEAR=1961
DGENRE=Jazz
TTITLE0=St.Thomas
TTITLE1=Cherry Blue
TTITLE2=A Bench In The Park
TTITLE3=Sancticity
TTITLE4=Mildew
TTITLE5=Puffing Billy
TTITLE6=Gurney Was Here(Or Blue Walz)
TTITLE7=Happy Feet
TTITLE8=Where Is Love?
TTITLE9=Dancing In The Dark
TTITLE10=Willow,Weep For Me
TTITLE11=Jellyroll
EXTD=YEAR: 1961
EXTT0=
EXTT1=
EXTT2=
EXTT3=
EXTT4=
EXTT5=
EXTT6=
EXTT7=
EXTT8=
EXTT9=
EXTT10=
EXTT11=
PLAYORDER=
